<svg xmlns="http://www.w3.org/2000/svg" width="12.571" height="16" viewBox="0 0 12.571 16">
  <g id="_1" data-name="1" transform="translate(-5 -2)">
    <path id="login_account_enter_door" d="M17.571,2.571V17.429A.571.571,0,0,1,17,18H5.571A.571.571,0,0,1,5,17.429V16.286H6.143v.571H16.429V3.143H6.143V4.857H5V2.571A.571.571,0,0,1,5.571,2H17A.571.571,0,0,1,17.571,2.571Zm-8.406,9.88.811.811,2.857-2.857a.571.571,0,0,0,0-.811L9.977,6.737l-.811.811,1.886,1.88H5v1.143h6.051Z" fill="#5b5b5b"/>
  </g>
</svg>
