<svg xmlns="http://www.w3.org/2000/svg" width="17.115" height="17.117" viewBox="0 0 17.115 17.117">
  <g id="covid" transform="translate(-56.6 -56.5)">
    <path id="XMLID_43_" d="M226.126,232.161l-.626-.413A6.46,6.46,0,0,1,227.208,230l.428.616A5.735,5.735,0,0,0,226.126,232.161Z" transform="translate(-165.726 -170.24)" fill="#fff"/>
    <path id="XMLID_42_" d="M170.15,368.013l-.75-.043a6.423,6.423,0,0,1,.6-2.37l.68.321A5.619,5.619,0,0,0,170.15,368.013Z" transform="translate(-110.68 -303.292)" fill="#fff"/>
    <path id="XMLID_41_" d="M170.56,539.517a6.394,6.394,0,0,1-.66-2.355l.75-.062a5.654,5.654,0,0,0,.583,2.08Z" transform="translate(-111.171 -471.569)" fill="#fff"/>
    <path id="XMLID_40_" d="M231.748,686.937A6.461,6.461,0,0,1,230,685.228l.616-.428a5.735,5.735,0,0,0,1.545,1.511Z" transform="translate(-170.142 -616.493)" fill="#fff"/>
    <path id="XMLID_39_" d="M367.87,787.583a6.423,6.423,0,0,1-2.37-.6l.321-.68a5.64,5.64,0,0,0,2.093.534Z" transform="translate(-303.095 -716.086)" fill="#fff"/>
    <path id="XMLID_38_" d="M537.162,784.532l-.062-.75a5.653,5.653,0,0,0,2.08-.583l.336.673A6.392,6.392,0,0,1,537.162,784.532Z" transform="translate(-471.471 -713.044)" fill="#fff"/>
    <path id="XMLID_37_" d="M685.228,681.161l-.428-.616A5.733,5.733,0,0,0,686.311,679l.628.415A6.516,6.516,0,0,1,685.228,681.161Z" transform="translate(-616.395 -610.802)" fill="#fff"/>
    <path id="XMLID_36_" d="M786.98,532.513l-.68-.321a5.64,5.64,0,0,0,.534-2.091l.75.043A6.423,6.423,0,0,1,786.98,532.513Z" transform="translate(-715.988 -464.7)" fill="#fff"/>
    <path id="XMLID_35_" d="M783.783,360.717a5.654,5.654,0,0,0-.583-2.08l.673-.336a6.391,6.391,0,0,1,.66,2.355Z" transform="translate(-712.946 -296.129)" fill="#fff"/>
    <path id="XMLID_34_" d="M680.545,227.538A5.734,5.734,0,0,0,679,226.028l.415-.628a6.46,6.46,0,0,1,1.748,1.708Z" transform="translate(-610.704 -165.726)" fill="#fff"/>
    <path id="XMLID_33_" d="M532.093,170.683A5.638,5.638,0,0,0,530,170.15l.043-.75a6.424,6.424,0,0,1,2.37.6Z" transform="translate(-464.504 -110.778)" fill="#fff"/>
    <path id="XMLID_32_" d="M358.636,171.232l-.336-.673a6.394,6.394,0,0,1,2.355-.66l.062.75A5.653,5.653,0,0,0,358.636,171.232Z" transform="translate(-296.031 -111.269)" fill="#fff"/>
    <path id="XMLID_31_" d="M435.614,59.822h-.752V58.654a1.28,1.28,0,0,1,.509-1.024c.06-.045.088-.088.088-.111,0-.068-.225-.267-.654-.267s-.654.2-.654.267c0,.021.028.066.088.111a1.277,1.277,0,0,1,.509,1.024v1.169H434V58.654a.523.523,0,0,0-.207-.421.892.892,0,0,1-.391-.714c0-.571.616-1.019,1.406-1.019s1.406.447,1.406,1.019a.892.892,0,0,1-.391.714.523.523,0,0,0-.207.421Z" transform="translate(-369.719 0)" fill="#fff"/>
    <path id="XMLID_30_" d="M442.406,793.922c-.787,0-1.406-.447-1.406-1.019a.893.893,0,0,1,.391-.714.523.523,0,0,0,.207-.421V790.6h.752v1.169a1.28,1.28,0,0,1-.509,1.024c-.06.045-.088.088-.088.111,0,.068.225.267.654.267s.654-.2.654-.267c0-.021-.028-.066-.088-.111a1.277,1.277,0,0,1-.509-1.024V790.6h.752v1.169a.523.523,0,0,0,.207.421.893.893,0,0,1,.391.714C443.809,793.475,443.193,793.922,442.406,793.922Z" transform="translate(-377.177 -720.305)" fill="#fff"/>
    <path id="XMLID_29_" d="M57.619,443.711c-.571,0-1.019-.616-1.019-1.406s.447-1.406,1.019-1.406a.892.892,0,0,1,.714.391.523.523,0,0,0,.421.207h1.169v.752H58.754a1.28,1.28,0,0,1-1.024-.509c-.045-.06-.088-.088-.111-.088-.068,0-.267.226-.267.654s.2.654.267.654c.021,0,.066-.028.111-.088a1.277,1.277,0,0,1,1.024-.509h1.169v.752H58.754a.523.523,0,0,0-.421.207A.892.892,0,0,1,57.619,443.711Z" transform="translate(0 -377.177)" fill="#fff"/>
    <path id="XMLID_28_" d="M792.9,436.211a.893.893,0,0,1-.714-.391.523.523,0,0,0-.421-.207H790.6v-.752h1.169a1.28,1.28,0,0,1,1.024.509c.045.06.088.088.111.088.068,0,.267-.225.267-.654s-.2-.654-.267-.654c-.021,0-.066.028-.111.088a1.277,1.277,0,0,1-1.024.509H790.6V434h1.169a.523.523,0,0,0,.421-.207.893.893,0,0,1,.714-.391c.571,0,1.019.616,1.019,1.406S793.475,436.211,792.9,436.211Z" transform="translate(-720.207 -369.818)" fill="#fff"/>
    <path id="XMLID_27_" d="M239.548,109.6l-.584-1.011a.524.524,0,0,0-.389-.261.885.885,0,0,1-.7-.423c-.286-.494.026-1.189.708-1.584a1.771,1.771,0,0,1,.925-.252.925.925,0,0,1,.8.43.891.891,0,0,1,.019.812.522.522,0,0,0,.032.468l.584,1.011-.652.378-.584-1.011a1.286,1.286,0,0,1-.071-1.141.187.187,0,0,0,.021-.139c-.011-.021-.068-.051-.175-.054a1.028,1.028,0,0,0-.524.15c-.372.214-.468.5-.432.556a.188.188,0,0,0,.132.051,1.28,1.28,0,0,1,.953.631l.584,1.011Z" transform="translate(-177.769 -48.632)" fill="#fff"/>
    <path id="XMLID_26_" d="M618.881,733.531h-.047a.925.925,0,0,1-.8-.43.892.892,0,0,1-.019-.812.522.522,0,0,0-.032-.468l-.582-1.013.65-.376.584,1.011a1.286,1.286,0,0,1,.071,1.141.187.187,0,0,0-.021.139c.011.021.068.051.175.054a1.029,1.029,0,0,0,.524-.15c.372-.214.468-.5.432-.556a.188.188,0,0,0-.132-.051,1.28,1.28,0,0,1-.953-.631l-.584-1.013.65-.376.584,1.011a.527.527,0,0,0,.389.261.885.885,0,0,1,.7.423c.286.494-.026,1.19-.708,1.584A1.785,1.785,0,0,1,618.881,733.531Z" transform="translate(-550.262 -660.844)" fill="#fff"/>
    <path id="XMLID_25_" d="M107.5,620.474a1.472,1.472,0,0,1-1.182-.814,1.771,1.771,0,0,1-.252-.925.925.925,0,0,1,.43-.8.892.892,0,0,1,.812-.019.522.522,0,0,0,.468-.032l1.011-.584.376.65-1.011.584a1.286,1.286,0,0,1-1.141.071.187.187,0,0,0-.139-.021c-.021.011-.051.068-.054.175a1.028,1.028,0,0,0,.15.524c.214.372.5.468.556.432a.188.188,0,0,0,.051-.132,1.28,1.28,0,0,1,.631-.953l1.011-.584.376.65-1.011.584a.527.527,0,0,0-.261.389.885.885,0,0,1-.423.7A.759.759,0,0,1,107.5,620.474Z" transform="translate(-48.534 -550.262)" fill="#fff"/>
    <path id="XMLID_24_" d="M730.808,240.946l-.376-.65,1.011-.584a1.286,1.286,0,0,1,1.141-.071.187.187,0,0,0,.139.021c.021-.011.051-.068.054-.175a1.029,1.029,0,0,0-.15-.524c-.214-.372-.5-.468-.556-.432a.188.188,0,0,0-.051.132,1.28,1.28,0,0,1-.631.953l-1.013.584-.376-.65,1.011-.584a.524.524,0,0,0,.261-.389.885.885,0,0,1,.423-.7c.494-.286,1.19.026,1.584.708a1.771,1.771,0,0,1,.252.925.925.925,0,0,1-.43.8.891.891,0,0,1-.812.019.522.522,0,0,0-.468.032Z" transform="translate(-660.746 -177.867)" fill="#fff"/>
    <path id="XMLID_23_" d="M104.989,247.348l-1.013-.584a.528.528,0,0,0-.468-.032.89.89,0,0,1-.814-.019.925.925,0,0,1-.43-.8,1.766,1.766,0,0,1,.252-.925c.395-.682,1.09-.994,1.584-.708a.89.89,0,0,1,.423.7.524.524,0,0,0,.261.389l1.011.584-.376.65-1.011-.584a1.275,1.275,0,0,1-.631-.953c-.009-.075-.032-.122-.051-.132-.058-.034-.342.062-.556.432a1.023,1.023,0,0,0-.15.524c0,.107.034.164.054.175a.192.192,0,0,0,.141-.021,1.274,1.274,0,0,1,1.141.071l1.011.584Z" transform="translate(-44.806 -184.147)" fill="#fff"/>
    <path id="XMLID_22_" d="M735.9,614.072a.8.8,0,0,1-.4-.105.89.89,0,0,1-.423-.7.524.524,0,0,0-.261-.389L733.8,612.3l.376-.65,1.011.584a1.275,1.275,0,0,1,.631.953c.009.075.032.122.051.131.058.034.342-.062.556-.432a1.023,1.023,0,0,0,.15-.524c0-.107-.034-.163-.054-.175a.192.192,0,0,0-.141.021,1.273,1.273,0,0,1-1.141-.071l-1.011-.584.376-.65,1.011.584a.527.527,0,0,0,.468.032.89.89,0,0,1,.814.019.925.925,0,0,1,.43.8,1.766,1.766,0,0,1-.252.924A1.468,1.468,0,0,1,735.9,614.072Z" transform="translate(-664.474 -543.982)" fill="#fff"/>
    <path id="XMLID_21_" d="M245.867,737.331a1.8,1.8,0,0,1-.879-.252c-.682-.395-.994-1.09-.708-1.584a.9.9,0,0,1,.7-.423.524.524,0,0,0,.389-.261l.584-1.011.65.376-.584,1.011a1.275,1.275,0,0,1-.953.631c-.075.009-.122.032-.132.051-.034.058.062.342.432.556a1.023,1.023,0,0,0,.524.15c.107,0,.163-.034.175-.054a.192.192,0,0,0-.021-.141,1.274,1.274,0,0,1,.071-1.141l.584-1.011.65.376-.583,1.015a.528.528,0,0,0-.032.468.89.89,0,0,1-.019.814.925.925,0,0,1-.8.43A.357.357,0,0,0,245.867,737.331Z" transform="translate(-184.049 -664.573)" fill="#fff"/>
    <path id="XMLID_20_" d="M612.3,105.978l-.65-.376.584-1.011a1.275,1.275,0,0,1,.953-.631c.075-.009.122-.032.132-.051.034-.058-.062-.342-.432-.556a1.023,1.023,0,0,0-.524-.15c-.107,0-.163.034-.175.054a.191.191,0,0,0,.021.141,1.274,1.274,0,0,1-.071,1.141l-.584,1.011-.65-.376.584-1.011a.528.528,0,0,0,.032-.468.89.89,0,0,1,.019-.814.925.925,0,0,1,.8-.43,1.749,1.749,0,0,1,.925.252c.682.395.994,1.09.708,1.584a.89.89,0,0,1-.7.423.524.524,0,0,0-.389.261Z" transform="translate(-543.884 -45.086)" fill="#fff"/>
    <path id="XMLID_17_" d="M422.21,289.32a1.21,1.21,0,1,1,1.21-1.21A1.212,1.212,0,0,1,422.21,289.32Zm0-1.669a.459.459,0,1,0,.459.458A.459.459,0,0,0,422.21,287.652Z" transform="translate(-357.552 -226.07)" fill="#fff"/>
    <path id="XMLID_14_" d="M458.01,458.02a1.21,1.21,0,1,1,1.21-1.21A1.212,1.212,0,0,1,458.01,458.02Zm0-1.671a.459.459,0,1,0,.458.459A.459.459,0,0,0,458.01,456.35Z" transform="translate(-392.68 -391.6)" fill="#fff"/>
    <path id="XMLID_11_" d="M601.81,377.12a1.21,1.21,0,1,1,1.21-1.21A1.212,1.212,0,0,1,601.81,377.12Zm0-1.671a.459.459,0,1,0,.458.459A.459.459,0,0,0,601.81,375.45Z" transform="translate(-533.777 -312.221)" fill="#fff"/>
    <path id="XMLID_8_" d="M286.71,431.72a1.21,1.21,0,1,1,1.21-1.21A1.212,1.212,0,0,1,286.71,431.72Zm0-1.669a.459.459,0,1,0,.458.459A.459.459,0,0,0,286.71,430.052Z" transform="translate(-224.599 -365.794)" fill="#fff"/>
    <path id="XMLID_5_" d="M385.21,602.42a1.21,1.21,0,1,1,1.21-1.21A1.212,1.212,0,0,1,385.21,602.42Zm0-1.671a.459.459,0,1,0,.459.459A.459.459,0,0,0,385.21,600.75Z" transform="translate(-321.248 -533.287)" fill="#fff"/>
    <path id="XMLID_2_" d="M588.91,549.92a1.21,1.21,0,1,1,1.21-1.21A1.212,1.212,0,0,1,588.91,549.92Zm0-1.671a.459.459,0,1,0,.458.459A.459.459,0,0,0,588.91,548.25Z" transform="translate(-521.12 -481.773)" fill="#fff"/>
  </g>
</svg>
