<svg xmlns="http://www.w3.org/2000/svg" width="19.206" height="19.206" viewBox="0 0 19.206 19.206">
  <g id="Icon-feather-instagram" transform="translate(0.5 0.5)">
    <path id="Path_8" data-name="Path 8" d="M7.552,3h9.1a4.552,4.552,0,0,1,4.552,4.552v9.1a4.552,4.552,0,0,1-4.552,4.552h-9.1A4.552,4.552,0,0,1,3,16.655v-9.1A4.552,4.552,0,0,1,7.552,3Z" transform="translate(-3 -3)" fill="none" stroke="#fff" stroke-linecap="round" stroke-linejoin="round" stroke-width="1"/>
    <path id="Path_9" data-name="Path 9" d="M19.308,15.042a3.641,3.641,0,1,1-3.068-3.068A3.641,3.641,0,0,1,19.308,15.042Z" transform="translate(-6.564 -6.513)" fill="none" stroke="#fff" stroke-linecap="round" stroke-linejoin="round" stroke-width="1"/>
    <path id="Path_10" data-name="Path 10" d="M26.25,9.75h0" transform="translate(-12.14 -5.654)" fill="none" stroke="#fff" stroke-linecap="round" stroke-linejoin="round" stroke-width="1"/>
  </g>
</svg>
