<svg xmlns="http://www.w3.org/2000/svg" xmlns:xlink="http://www.w3.org/1999/xlink" width="31.196" height="31.196" viewBox="0 0 31.196 31.196">
  <defs>
    <linearGradient id="linear-gradient" x1="0.024" y1="-0.03" x2="0.792" y2="0.825" gradientUnits="objectBoundingBox">
      <stop offset="0" stop-color="#11a4dc"/>
      <stop offset="0.505" stop-color="#0f94c9"/>
      <stop offset="1" stop-color="#0c82b4"/>
    </linearGradient>
  </defs>
  <path id="iconfinder_Twitter_570625" d="M22.7,7.1a15.6,15.6,0,1,0,15.6,15.6A15.6,15.6,0,0,0,22.7,7.1Zm7.593,11.7q.011.252.011.507a11.142,11.142,0,0,1-17.152,9.386,7.906,7.906,0,0,0,5.8-1.622,3.922,3.922,0,0,1-3.66-2.721,3.882,3.882,0,0,0,.737.071,3.938,3.938,0,0,0,1.032-.137,3.921,3.921,0,0,1-3.143-3.841c0-.017,0-.033,0-.05a3.907,3.907,0,0,0,1.775.49,3.923,3.923,0,0,1-1.212-5.231,11.124,11.124,0,0,0,8.075,4.093,3.92,3.92,0,0,1,6.675-3.573,7.842,7.842,0,0,0,2.488-.951,3.925,3.925,0,0,1-1.723,2.168,7.8,7.8,0,0,0,2.25-.617A7.933,7.933,0,0,1,30.289,18.8Z" transform="translate(-7.098 -7.098)" fill="url(#linear-gradient)"/>
</svg>
