<svg xmlns="http://www.w3.org/2000/svg" width="19.206" height="18.296" viewBox="0 0 19.206 18.296">
  <g id="Icon-feather-linkedin" transform="translate(0.5 0.5)">
    <path id="Path_11" data-name="Path 11" d="M20.462,12a5.462,5.462,0,0,1,5.462,5.462v6.372H22.282V17.462a1.821,1.821,0,0,0-3.641,0v6.372H15V17.462A5.462,5.462,0,0,1,20.462,12Z" transform="translate(-7.718 -6.538)" fill="none" stroke="#fff" stroke-linecap="round" stroke-linejoin="round" stroke-width="1"/>
    <path id="Path_12" data-name="Path 12" d="M3,13.5H6.641V24.424H3Z" transform="translate(-3 -7.128)" fill="none" stroke="#fff" stroke-linecap="round" stroke-linejoin="round" stroke-width="1"/>
    <path id="Path_13" data-name="Path 13" d="M6.641,4.821A1.821,1.821,0,1,1,4.821,3,1.821,1.821,0,0,1,6.641,4.821Z" transform="translate(-3 -3)" fill="none" stroke="#fff" stroke-linecap="round" stroke-linejoin="round" stroke-width="1"/>
  </g>
</svg>
