<svg xmlns="http://www.w3.org/2000/svg" width="23.342" height="23.385" viewBox="0 0 23.342 23.385">
  <path id="Icon-feather-phone" d="M24.507,19.009v3.219a2.146,2.146,0,0,1-2.339,2.146,21.234,21.234,0,0,1-9.26-3.294,20.923,20.923,0,0,1-6.438-6.438,21.234,21.234,0,0,1-3.294-9.3A2.146,2.146,0,0,1,5.312,3H8.531a2.146,2.146,0,0,1,2.146,1.846,13.777,13.777,0,0,0,.751,3.015,2.146,2.146,0,0,1-.483,2.264L9.582,11.487a17.168,17.168,0,0,0,6.438,6.438l1.363-1.363a2.146,2.146,0,0,1,2.264-.483,13.777,13.777,0,0,0,3.015.751,2.146,2.146,0,0,1,1.846,2.178Z" transform="translate(-2.167 -2)" fill="none" stroke="#686868" stroke-linecap="round" stroke-linejoin="round" stroke-width="2"/>
</svg>
