<svg xmlns="http://www.w3.org/2000/svg" width="14.557" height="23.292" viewBox="0 0 14.557 23.292">
  <path id="Icon-metro-location" d="M15.633,1.928A7.279,7.279,0,0,0,8.355,9.207c0,7.279,7.279,16.013,7.279,16.013s7.279-8.734,7.279-16.013a7.279,7.279,0,0,0-7.279-7.279Zm0,20.188c-2.462,0-6.519-8.236-6.27-12.909a6.231,6.231,0,0,1,6.27-6.289,6.483,6.483,0,0,1,6.311,6.289C22.068,13.476,18.1,22.116,15.633,22.116ZM12.813,9.207a2.82,2.82,0,1,1,2.82,2.82A2.82,2.82,0,0,1,12.813,9.207Z" transform="translate(-8.355 -1.928)" fill="#686868"/>
</svg>
