<svg xmlns="http://www.w3.org/2000/svg" width="19.805" height="18.79" viewBox="0 0 19.805 18.79">
  <g id="like" transform="translate(-54.13 -53.316)">
    <path id="Path_6" data-name="Path 6" d="M145.573,72.106h-4.292a7.008,7.008,0,0,1-2.453-.441l-3.343-1.242A.743.743,0,1,1,136,69.031l3.343,1.242a5.537,5.537,0,0,0,1.936.347h4.292a.7.7,0,1,0,0-1.408.743.743,0,1,1,0-1.486h1.013a.7.7,0,1,0,0-1.408.743.743,0,0,1,0-1.486H147.6a.7.7,0,1,0,0-1.408.743.743,0,0,1,0-1.486h1.013a.7.7,0,0,0,0-1.408H141.6a.743.743,0,0,1-.651-1.1,4.962,4.962,0,0,0,.456-1.453,3.943,3.943,0,0,0-.615-2.91.608.608,0,0,0-1.106.347,5.351,5.351,0,0,1-3.4,5.349.743.743,0,1,1-.581-1.368,3.925,3.925,0,0,0,2.008-1.737,4.593,4.593,0,0,0,.487-2.229,2.095,2.095,0,0,1,3.822-1.2,5.6,5.6,0,0,1,.668,4.815h5.928a2.19,2.19,0,0,1,.97,4.152,2.193,2.193,0,0,1-1.012,2.893,2.193,2.193,0,0,1-1.013,2.894,2.191,2.191,0,0,1-1.981,3.12Z" transform="translate(-76.866 0)" fill="#ff7c00"/>
    <path id="Path_7" data-name="Path 7" d="M59.126,186.53H54.873a.743.743,0,0,1-.743-.743V175.6a.743.743,0,0,1,.743-.743h4.253a.743.743,0,0,1,.743.743v10.185A.743.743,0,0,1,59.126,186.53Zm-3.509-1.486h2.766v-8.7H55.616Z" transform="translate(0 -115.524)" fill="#ff7c00"/>
  </g>
</svg>
