<svg xmlns="http://www.w3.org/2000/svg" width="26.161" height="29.24" viewBox="0 0 26.161 29.24">
  <g id="play" transform="translate(-3 -1.38)">
    <g id="Group_23" data-name="Group 23">
      <path id="Path_2" data-name="Path 2" d="M4.993,2.5A.613.613,0,0,0,4,3V29a.613.613,0,0,0,.993.5L27.819,16.5c.478-.273.446-.719-.031-.992Z" fill="#fff"/>
      <path id="Path_3" data-name="Path 3" d="M4.585,30.62h0A1.568,1.568,0,0,1,3,29V3A1.568,1.568,0,0,1,4.585,1.38a1.816,1.816,0,0,1,.9.248L28.283,14.635a1.6,1.6,0,0,1,.878,1.382,1.555,1.555,0,0,1-.847,1.347L5.488,30.373A1.829,1.829,0,0,1,4.585,30.62ZM5,3.651v24.7l21.655-12.34Z" fill="#fff"/>
    </g>
  </g>
</svg>
