<svg xmlns="http://www.w3.org/2000/svg" width="17.559" height="17.519" viewBox="0 0 17.559 17.519">
  <g id="sell" transform="translate(-1 -1.048)">
    <path id="Path_28" data-name="Path 28" d="M18.087,8.663,16.451,7.027V4.7a1.6,1.6,0,0,0-1.6-1.6H12.54L10.9,1.513a1.6,1.6,0,0,0-2.251,0l-1.636,1.6H4.7a1.6,1.6,0,0,0-1.6,1.6V7.027L1.5,8.663a1.553,1.553,0,0,0-.04,2.251L3.107,12.55v2.322a1.6,1.6,0,0,0,1.6,1.6H7.018L8.654,18.1a1.6,1.6,0,0,0,2.251,0l1.636-1.644h2.322a1.6,1.6,0,0,0,1.6-1.6V12.55L18.1,10.914a1.6,1.6,0,0,0,0-2.251ZM14.855,11.9v2.969H11.886L9.779,16.972,7.672,14.865H4.7V11.9L2.6,9.789,4.7,7.682V4.713H7.672L9.779,2.606l2.107,2.107h2.969V7.682l2.107,2.107Z" fill="#fff"/>
    <path id="Path_29" data-name="Path 29" d="M12.98,7.779,8.192,13.366A.8.8,0,1,0,9.4,14.4l4.789-5.587A.8.8,0,0,0,12.98,7.779Z" transform="translate(-1.413 -1.303)" fill="#fff"/>
    <path id="Path_30" data-name="Path 30" d="M10.513,9.856a1.2,1.2,0,1,0-1.476-.8A1.2,1.2,0,0,0,10.513,9.856Z" transform="translate(-1.612 -1.304)" fill="#fff"/>
    <path id="Path_31" data-name="Path 31" d="M12.881,13.538a1.2,1.2,0,1,0,1.476.8A1.2,1.2,0,0,0,12.881,13.538Z" transform="translate(-2.224 -2.513)" fill="#fff"/>
  </g>
</svg>
