<svg xmlns="http://www.w3.org/2000/svg" width="23.002" height="23.003" viewBox="0 0 23.002 23.003">
  <path id="sport" d="M17.612,20.608A42.453,42.453,0,0,0,15.7,13.595a14.228,14.228,0,0,1,6.12.429,9.823,9.823,0,0,1-4.209,6.584Zm-5.488,1.678a9.781,9.781,0,0,1-6.257-2.251c.13.1.221.171.221.171S7.97,16.1,13.8,14.072c.02-.009.043-.013.065-.02a40.818,40.818,0,0,1,2.1,7.456,9.793,9.793,0,0,1-3.833.779ZM2.3,12.464c0-.1.005-.207.008-.31a35.963,35.963,0,0,0,10.083-1.4c.281.549.549,1.112.8,1.67q-.2.053-.387.118a15.535,15.535,0,0,0-7.988,6.479l0,.005A9.782,9.782,0,0,1,2.3,12.464Zm5.63-8.88a58.571,58.571,0,0,1,3.648,5.658,36.31,36.31,0,0,1-9.067,1.2A9.823,9.823,0,0,1,7.933,3.584Zm1.839-.655v0l-.031.005.032-.008ZM18.61,5.1A10.7,10.7,0,0,1,13.48,8.65,49.874,49.874,0,0,0,9.811,2.921a9.78,9.78,0,0,1,8.8,2.175Zm3.332,7.27a22.732,22.732,0,0,0-6.84-.322l-.212-.5q-.307-.722-.653-1.426a12.651,12.651,0,0,0,5.471-3.886A9.782,9.782,0,0,1,21.942,12.366Zm1.449-2.216A11.5,11.5,0,0,0,.625,12.464,11.465,11.465,0,0,0,2.59,18.895a11.522,11.522,0,0,0,5.057,4.164,11.292,11.292,0,0,0,2.161.67A11.472,11.472,0,0,0,18.554,22a11.625,11.625,0,0,0,1.7-1.4A11.483,11.483,0,0,0,23.39,10.15Z" transform="translate(-0.625 -0.964)" fill="#fff"/>
</svg>
