<svg id="unlike" xmlns="http://www.w3.org/2000/svg" width="19.805" height="18.79" viewBox="0 0 19.805 18.79">
  <path id="Path_6" data-name="Path 6" d="M140.229,53.316h4.292a7.008,7.008,0,0,1,2.453.441L150.316,55a.743.743,0,1,1-.518,1.393l-3.343-1.242a5.537,5.537,0,0,0-1.936-.347h-4.292a.7.7,0,1,0,0,1.408.743.743,0,1,1,0,1.486h-1.013a.7.7,0,1,0,0,1.408.743.743,0,0,1,0,1.486H138.2a.7.7,0,1,0,0,1.408.743.743,0,0,1,0,1.486H137.19a.7.7,0,0,0,0,1.408h7.015a.743.743,0,0,1,.651,1.1,4.962,4.962,0,0,0-.456,1.453,3.943,3.943,0,0,0,.615,2.91.608.608,0,0,0,1.106-.347,5.351,5.351,0,0,1,3.4-5.349.743.743,0,1,1,.581,1.368,3.925,3.925,0,0,0-2.008,1.737,4.593,4.593,0,0,0-.487,2.229,2.095,2.095,0,0,1-3.822,1.2,5.6,5.6,0,0,1-.668-4.815H137.19a2.19,2.19,0,0,1-.97-4.152,2.193,2.193,0,0,1,1.012-2.893,2.193,2.193,0,0,1,1.013-2.894,2.191,2.191,0,0,1,1.981-3.12Z" transform="translate(-135.001 -53.316)" fill="#5b5b5b"/>
  <path id="Path_7" data-name="Path 7" d="M54.873,174.86h4.253a.743.743,0,0,1,.743.743v10.185a.743.743,0,0,1-.743.743H54.873a.743.743,0,0,1-.743-.743V175.6A.743.743,0,0,1,54.873,174.86Zm3.509,1.486H55.616v8.7h2.767Z" transform="translate(-40.064 -173.76)" fill="#5b5b5b"/>
</svg>
