<svg xmlns="http://www.w3.org/2000/svg" width="16.395" height="11.092" viewBox="0 0 16.395 11.092">
  <g id="witness" transform="translate(0 -10.4)">
    <g id="Group_66" data-name="Group 66" transform="translate(0 10.4)">
      <path id="Path_32" data-name="Path 32" d="M7.39,30.482a.284.284,0,0,0-.282-.282A2.4,2.4,0,0,0,4.7,32.608a.282.282,0,0,0,.564,0,1.837,1.837,0,0,1,1.844-1.844A.284.284,0,0,0,7.39,30.482Z" transform="translate(-3.496 -25.128)" fill="#fff"/>
      <path id="Path_33" data-name="Path 33" d="M15.126,38.782a1.837,1.837,0,0,1-1.844,1.844.282.282,0,1,0,0,.564,2.4,2.4,0,0,0,2.408-2.408.284.284,0,0,0-.282-.282A.269.269,0,0,0,15.126,38.782Z" transform="translate(-9.67 -31.302)" fill="#fff"/>
      <path id="Path_34" data-name="Path 34" d="M15.677,15.728h0L12.45,11.015l-.026-.026a1.843,1.843,0,0,0-1.358-.589A1.88,1.88,0,0,0,9.2,12.27c0,.256-.077,1.178-.512,1.178H7.736c-.41,0-.512-.922-.512-1.178a1.88,1.88,0,0,0-1.87-1.87A1.8,1.8,0,0,0,4,10.989l-.026.026L.717,15.7a.025.025,0,0,1-.026.026A3.715,3.715,0,0,0,0,17.88a3.612,3.612,0,0,0,7.224,0c0-1.793.487-2.152.564-2.2h.845c.1.077.564.461.564,2.2a3.6,3.6,0,1,0,7.2,0A3.456,3.456,0,0,0,15.677,15.728ZM3.612,20.9A3.056,3.056,0,0,1,.564,17.854a2.952,2.952,0,0,1,.589-1.793l.026-.026A3.044,3.044,0,1,1,3.612,20.9Zm3.2-4.662a.089.089,0,0,0-.026-.051c-.026-.026-.026-.051-.051-.077-.051-.077-.077-.154-.128-.231,0-.026-.026-.026-.026-.051a2.216,2.216,0,0,1-.179-.256l-.051-.051c-.051-.051-.1-.128-.154-.179-.026-.026-.026-.051-.051-.051-.077-.077-.154-.128-.231-.2l-.026-.026c-.077-.051-.128-.1-.2-.154-.026-.026-.051-.026-.077-.051L5.379,14.7l-.026-.026a1.373,1.373,0,0,0-.282-.128c-.026,0-.051-.026-.077-.026l-.231-.077c-.026,0-.051-.026-.077-.026l-.307-.077H4.329c-.077-.026-.179-.026-.256-.051H4c-.1,0-.231-.026-.333-.026a2.344,2.344,0,0,0-.41.026c-.051,0-.077.026-.128.026a.91.91,0,0,0-.256.051c-.051,0-.1.026-.154.026l-.231.077c-.051.026-.1.026-.154.051-.026,0-.051.026-.077.026l2.177-3.176a1.34,1.34,0,0,1,.948-.41A1.312,1.312,0,0,1,6.686,12.27c0,.564.179,1.486.794,1.691v1.255A1.592,1.592,0,0,0,6.814,16.241Zm1.178-2.254h.384v1.1H7.992Zm1.588,2.254a1.926,1.926,0,0,0-.615-1.05V13.935c.615-.2.794-1.127.794-1.691a1.312,1.312,0,0,1,1.306-1.306,1.34,1.34,0,0,1,.948.41l2.177,3.176c-.026,0-.051-.026-.1-.026-.051-.026-.1-.026-.154-.051l-.231-.077c-.051,0-.1-.026-.154-.026-.077-.026-.179-.026-.256-.051-.051,0-.077-.026-.128-.026a2.071,2.071,0,0,0-.41-.026,1.461,1.461,0,0,0-.333.026h-.077a.91.91,0,0,0-.256.051H12.04l-.307.077c-.026,0-.051.026-.077.026l-.231.077c-.026,0-.051.026-.077.026-.1.051-.179.077-.282.128l-.026.026-.231.154c-.026.026-.051.026-.077.051a1.421,1.421,0,0,0-.2.154l-.026.026c-.077.077-.154.128-.231.2-.026.026-.026.051-.051.051-.051.051-.1.128-.154.179l-.051.051a.92.92,0,0,0-.179.256c0,.026-.026.026-.026.051a1.038,1.038,0,0,0-.128.231c-.026.026-.026.051-.051.077C9.606,16.215,9.581,16.215,9.581,16.241Zm3.2,4.662a3.048,3.048,0,0,1,0-6.1,2.975,2.975,0,0,1,2.434,1.23,3.065,3.065,0,0,1,.589,1.793A3.008,3.008,0,0,1,12.783,20.9Z" transform="translate(0 -10.4)" fill="#fff"/>
      <path id="Path_35" data-name="Path 35" d="M49.082,30.2a.282.282,0,0,0,0,.564,1.837,1.837,0,0,1,1.844,1.844.282.282,0,1,0,.564,0A2.4,2.4,0,0,0,49.082,30.2Z" transform="translate(-36.299 -25.128)" fill="#fff"/>
      <path id="Path_36" data-name="Path 36" d="M42.908,40.526a1.837,1.837,0,0,1-1.844-1.844.282.282,0,1,0-.564,0,2.4,2.4,0,0,0,2.408,2.408.282.282,0,1,0,0-.564Z" transform="translate(-30.125 -31.227)" fill="#fff"/>
    </g>
  </g>
</svg>
